<svg width="40" height="40" viewBox="0 0 40 40" fill="none" xmlns="http://www.w3.org/2000/svg">
<path d="M38.9519 18.3174C38.8683 17.1718 38.6945 16.0509 38.3954 14.947C37.0666 10.0325 34.2681 6.18012 29.9918 3.42373C27.269 1.65387 24.2548 0.674124 21.0081 0.416772C19.6545 0.317442 18.318 0.358077 16.9722 0.525131C15.5521 0.715887 14.1737 1.04774 12.8371 1.52971C6.942 3.67205 2.40721 8.54482 0.713856 14.5892C0.348094 15.8929 0.132483 17.2214 0.0410373 18.5748C-0.000731359 19.2723 -0.000732422 19.9699 -0.000732422 20.6675V37.6211C-0.000732422 38.5343 0.738699 39.2815 1.65988 39.2815H8.21087C9.06658 39.2815 9.77214 38.6257 9.86357 37.7949C9.86357 37.7949 9.86357 37.7949 9.86357 37.787C9.9053 37.6291 9.93017 37.4631 9.93017 37.2972V36.9066C9.93017 36.8739 9.92228 36.8491 9.93017 36.8152V36.7904C9.98779 36.7983 10.0216 36.8321 10.0544 36.8491C12.5368 38.2104 15.1864 39.0072 18.0097 39.2239C19.1228 39.3075 20.2438 39.2985 21.3727 39.1912C22.3774 39.0919 23.3743 38.9338 24.3621 38.6765C28.6055 37.5557 32.1096 35.2892 34.8416 31.8352C37.1919 28.8632 38.5364 25.4669 38.9191 21.6981C39.0355 20.567 39.0434 19.4462 38.9519 18.3174ZM22.9769 29.151C22.952 29.2752 22.8527 29.3588 22.7274 29.3588H16.2836C16.1674 29.3588 16.0589 29.2752 16.0342 29.151L16.0263 29.1093V28.8689C16.0263 28.5618 16.0589 28.2797 16.1256 27.9884C16.1674 27.8892 16.1922 27.7729 16.234 27.6645C16.2667 27.5562 16.3175 27.4569 16.3582 27.3484C16.4157 27.2492 16.4665 27.1486 16.5241 27.0584C16.5569 27.0088 16.5828 26.9669 16.6156 26.9173C16.6731 26.8258 16.7488 26.7345 16.8154 26.652C16.8898 26.5606 16.9643 26.4783 17.04 26.3947C17.4215 26.0211 17.8957 25.7219 18.4184 25.556C17.7038 25.1745 17.2228 24.4104 17.2228 23.5469C17.2228 22.285 18.2445 21.2635 19.5066 21.2556C20.1377 21.2556 20.7111 21.5208 21.1255 21.9283C21.5409 22.3437 21.7983 22.9159 21.7983 23.5469C21.7983 24.4104 21.3083 25.1745 20.6028 25.556C21.9891 26.0132 22.9938 27.3158 22.9938 28.8689C22.9927 28.9603 22.9848 29.0608 22.9769 29.151ZM34.1202 15.0712H4.89079C4.65823 15.0712 4.49229 14.8387 4.56679 14.6141C6.73428 8.46242 12.6045 4.04454 19.5055 4.04454C26.4065 4.04454 32.2768 8.4613 34.443 14.6141C34.5187 14.8387 34.3528 15.0712 34.1202 15.0712Z" fill="white"/>
</svg>
