<svg width="18" height="22" viewBox="0 0 18 22" fill="none" xmlns="http://www.w3.org/2000/svg">
<path d="M14.4579 11.7179C14.4579 9.13116 16.6164 7.79184 16.7184 7.79184C15.4861 6.0333 13.6329 5.72655 12.91 5.72655C11.3625 5.52208 9.82491 6.65696 9 6.65696C8.1754 6.65696 6.94314 5.72655 5.60921 5.72655C3.85802 5.72655 2.32042 6.75919 1.39383 8.31326C-0.459347 11.5134 0.874582 16.1652 2.62577 18.7419C3.45068 19.9788 4.47895 21.4309 5.91487 21.3286C7.2488 21.3286 7.76805 20.5003 9.30565 20.5003C10.8433 20.5003 11.3625 21.3286 12.6964 21.3286C14.132 21.3286 14.957 20.0914 15.7816 18.7419C16.8101 17.3001 17.2172 15.8484 17.2172 15.8484C17.1257 15.8484 14.4579 14.8158 14.4579 11.7179Z" fill="#DDE7F3"/>
<path d="M11.8814 3.96863C12.6044 3.03822 13.0117 1.90335 12.91 0.66626C11.8814 0.66626 10.6495 1.39216 9.92657 2.22032C9.30533 2.94622 8.69463 4.28557 8.79631 5.42042C9.92657 5.52266 11.1585 4.899 11.8814 3.96863Z" fill="#DDE7F3"/>
</svg>
