<svg width="756" height="972" viewBox="0 0 756 972" fill="none" xmlns="http://www.w3.org/2000/svg">
<g clip-path="url(#clip0_2012_1416)">
<g filter="url(#filter0_d_2012_1416)">
<path d="M356.462 -155.848C419.628 -155.838 480.993 -134.804 530.883 -96.0628C580.773 -57.3214 616.35 -3.07659 632.003 58.1189C647.656 119.314 642.495 183.979 617.334 241.917C592.174 299.856 548.444 347.771 493.041 378.11C577.81 401.109 652.652 451.369 706.018 521.131C759.384 590.893 788.305 676.28 788.32 764.113L788.32 1806.71H-403.917V-157.412L356.462 -155.848Z" fill="url(#paint0_linear_2012_1416)"/>
<mask id="path-2-inside-1_2012_1416" fill="white">
<path d="M-403.917 -157.412L356.462 -155.848C419.628 -155.838 480.993 -134.804 530.883 -96.0628C580.773 -57.3214 616.35 -3.07659 632.003 58.1189C647.656 119.314 642.495 183.979 617.334 241.917C592.174 299.856 548.444 347.771 493.041 378.11C577.812 401.105 652.657 451.364 706.023 521.127C759.389 590.89 788.31 676.279 788.32 764.113V1806.71H-403.917"/>
</mask>
<path d="M356.462 -155.848L356.462 -151.848L356.454 -151.848L356.462 -155.848ZM493.041 378.11L491.994 381.97L482.411 379.371L491.12 374.601L493.041 378.11ZM788.32 764.113L792.32 764.113V764.113H788.32ZM788.32 1806.71H792.32V1810.71H788.32V1806.71ZM-403.909 -161.412L356.47 -159.848L356.454 -151.848L-403.925 -153.412L-403.909 -161.412ZM356.463 -159.848C420.517 -159.838 482.745 -138.508 533.337 -99.2221L528.43 -92.9035C479.242 -131.1 418.739 -151.838 356.462 -151.848L356.463 -159.848ZM533.337 -99.2221C583.928 -59.936 620.005 -4.92834 635.878 57.1277L628.127 59.1101C612.694 -1.22484 577.619 -54.7069 528.43 -92.9035L533.337 -99.2221ZM635.878 57.1277C651.751 119.184 646.518 184.758 621.003 243.511L613.665 240.324C638.472 183.201 643.56 119.445 628.127 59.1101L635.878 57.1277ZM621.003 243.511C595.489 302.264 551.145 350.853 494.963 381.618L491.12 374.601C545.744 344.69 588.858 297.448 613.665 240.324L621.003 243.511ZM494.089 374.249C579.707 397.475 655.3 448.236 709.2 518.696L702.846 523.557C650.014 454.492 575.917 404.736 491.994 381.97L494.089 374.249ZM709.2 518.696C763.1 589.157 792.31 675.4 792.32 764.113L784.32 764.114C784.31 677.158 755.679 592.623 702.846 523.557L709.2 518.696ZM792.32 764.113V1806.71H784.32V764.113H792.32ZM788.32 1810.71H-403.917V1802.71H788.32V1810.71Z" fill="#3177DE" fill-opacity="0.35" mask="url(#path-2-inside-1_2012_1416)"/>
<g style="mix-blend-mode:overlay">
<mask id="path-4-inside-2_2012_1416" fill="white">
<path d="M-403.917 -157.412L356.462 -155.848C419.628 -155.838 480.993 -134.804 530.883 -96.0628C580.773 -57.3214 616.35 -3.07659 632.003 58.1189C647.656 119.314 642.495 183.979 617.334 241.917C592.174 299.856 548.444 347.771 493.041 378.11C577.812 401.105 652.657 451.364 706.023 521.127C759.389 590.89 788.31 676.279 788.32 764.113V1806.71H-403.917"/>
</mask>
<path d="M356.462 -155.848L356.462 -151.848L356.454 -151.848L356.462 -155.848ZM493.041 378.11L491.994 381.97L482.411 379.371L491.12 374.601L493.041 378.11ZM788.32 764.113L792.32 764.113V764.113H788.32ZM788.32 1806.71H792.32V1810.71H788.32V1806.71ZM-403.909 -161.412L356.47 -159.848L356.454 -151.848L-403.925 -153.412L-403.909 -161.412ZM356.463 -159.848C420.517 -159.838 482.745 -138.508 533.337 -99.2221L528.43 -92.9035C479.242 -131.1 418.739 -151.838 356.462 -151.848L356.463 -159.848ZM533.337 -99.2221C583.928 -59.936 620.005 -4.92834 635.878 57.1277L628.127 59.1101C612.694 -1.22484 577.619 -54.7069 528.43 -92.9035L533.337 -99.2221ZM635.878 57.1277C651.751 119.184 646.518 184.758 621.003 243.511L613.665 240.324C638.472 183.201 643.56 119.445 628.127 59.1101L635.878 57.1277ZM621.003 243.511C595.489 302.264 551.145 350.853 494.963 381.618L491.12 374.601C545.744 344.69 588.858 297.448 613.665 240.324L621.003 243.511ZM494.089 374.249C579.707 397.475 655.3 448.236 709.2 518.696L702.846 523.557C650.014 454.492 575.917 404.736 491.994 381.97L494.089 374.249ZM709.2 518.696C763.1 589.157 792.31 675.4 792.32 764.113L784.32 764.114C784.31 677.158 755.679 592.623 702.846 523.557L709.2 518.696ZM792.32 764.113V1806.71H784.32V764.113H792.32ZM788.32 1810.71H-403.917V1802.71H788.32V1810.71Z" fill="#AACCFF" fill-opacity="0.35" mask="url(#path-4-inside-2_2012_1416)"/>
</g>
</g>
<g filter="url(#filter1_d_2012_1416)">
<path d="M240.259 -19.6459C303.425 -19.6359 364.79 1.39801 414.68 40.1394C464.57 78.8807 500.146 133.126 515.799 194.321C531.452 255.517 526.292 320.181 501.131 378.12C475.97 436.058 432.241 483.974 376.838 514.312C461.607 537.311 536.449 587.571 589.815 657.333C643.18 727.095 672.102 812.482 672.117 900.315L672.117 1942.91H-520.12V-21.2097L240.259 -19.6459Z" fill="url(#paint1_linear_2012_1416)"/>
<mask id="path-7-inside-3_2012_1416" fill="white">
<path d="M-520.12 -21.2097L240.259 -19.6459C303.425 -19.6359 364.79 1.39801 414.68 40.1394C464.57 78.8807 500.146 133.126 515.799 194.321C531.452 255.517 526.292 320.181 501.131 378.12C475.97 436.058 432.241 483.974 376.838 514.312C461.609 537.308 536.454 587.566 589.82 657.329C643.186 727.092 672.107 812.481 672.117 900.315V1942.91H-520.12"/>
</mask>
<path d="M240.259 -19.6459L240.258 -15.6459L240.251 -15.6459L240.259 -19.6459ZM376.838 514.312L375.791 518.172L366.208 515.573L374.917 510.804L376.838 514.312ZM672.117 900.315L676.117 900.315V900.315H672.117ZM672.117 1942.91H676.117V1946.91H672.117V1942.91ZM-520.112 -25.2097L240.267 -23.6459L240.251 -15.6459L-520.128 -17.2097L-520.112 -25.2097ZM240.26 -23.6459C304.314 -23.6358 366.542 -2.30607 417.134 36.9801L412.227 43.2987C363.039 5.1021 302.536 -15.636 240.258 -15.6459L240.26 -23.6459ZM417.134 36.9801C467.725 76.2662 503.802 131.274 519.675 193.33L511.924 195.312C496.491 134.977 461.415 81.4953 412.227 43.2987L417.134 36.9801ZM519.675 193.33C535.548 255.386 530.315 320.96 504.8 379.713L497.462 376.526C522.269 319.403 527.357 255.647 511.924 195.312L519.675 193.33ZM504.8 379.713C479.286 438.466 434.942 487.055 378.759 517.82L374.917 510.804C429.541 480.892 472.655 433.65 497.462 376.526L504.8 379.713ZM377.885 510.451C463.504 533.677 539.097 584.438 592.997 654.899L586.643 659.759C533.81 590.694 459.714 540.938 375.791 518.172L377.885 510.451ZM592.997 654.899C646.897 725.359 676.106 811.602 676.117 900.315L668.117 900.316C668.107 813.36 639.476 728.825 586.643 659.759L592.997 654.899ZM676.117 900.315V1942.91H668.117V900.315H676.117ZM672.117 1946.91H-520.12V1938.91H672.117V1946.91Z" fill="#3177DE" fill-opacity="0.35" mask="url(#path-7-inside-3_2012_1416)"/>
<g style="mix-blend-mode:overlay">
<mask id="path-9-inside-4_2012_1416" fill="white">
<path d="M-520.12 -21.2097L240.259 -19.6459C303.425 -19.6359 364.79 1.39801 414.68 40.1394C464.57 78.8807 500.146 133.126 515.799 194.321C531.452 255.517 526.292 320.181 501.131 378.12C475.97 436.058 432.241 483.974 376.838 514.312C461.609 537.308 536.454 587.566 589.82 657.329C643.186 727.092 672.107 812.481 672.117 900.315V1942.91H-520.12"/>
</mask>
<path d="M240.259 -19.6459L240.258 -15.6459L240.251 -15.6459L240.259 -19.6459ZM376.838 514.312L375.791 518.172L366.208 515.573L374.917 510.804L376.838 514.312ZM672.117 900.315L676.117 900.315V900.315H672.117ZM672.117 1942.91H676.117V1946.91H672.117V1942.91ZM-520.112 -25.2097L240.267 -23.6459L240.251 -15.6459L-520.128 -17.2097L-520.112 -25.2097ZM240.26 -23.6459C304.314 -23.6358 366.542 -2.30607 417.134 36.9801L412.227 43.2987C363.039 5.1021 302.536 -15.636 240.258 -15.6459L240.26 -23.6459ZM417.134 36.9801C467.725 76.2662 503.802 131.274 519.675 193.33L511.924 195.312C496.491 134.977 461.415 81.4953 412.227 43.2987L417.134 36.9801ZM519.675 193.33C535.548 255.386 530.315 320.96 504.8 379.713L497.462 376.526C522.269 319.403 527.357 255.647 511.924 195.312L519.675 193.33ZM504.8 379.713C479.286 438.466 434.942 487.055 378.759 517.82L374.917 510.804C429.541 480.892 472.655 433.65 497.462 376.526L504.8 379.713ZM377.885 510.451C463.504 533.677 539.097 584.438 592.997 654.899L586.643 659.759C533.81 590.694 459.714 540.938 375.791 518.172L377.885 510.451ZM592.997 654.899C646.897 725.359 676.106 811.602 676.117 900.315L668.117 900.316C668.107 813.36 639.476 728.825 586.643 659.759L592.997 654.899ZM676.117 900.315V1942.91H668.117V900.315H676.117ZM672.117 1946.91H-520.12V1938.91H672.117V1946.91Z" fill="#AACCFF" fill-opacity="0.35" mask="url(#path-9-inside-4_2012_1416)"/>
</g>
</g>
<g filter="url(#filter2_d_2012_1416)">
<path d="M124.06 116.553C187.226 116.563 248.591 137.597 298.481 176.339C348.371 215.08 383.947 269.325 399.6 330.52C415.253 391.716 410.093 456.381 384.932 514.319C359.771 572.257 316.042 620.173 260.639 650.511C345.407 673.511 420.25 723.77 473.616 793.532C526.981 863.294 555.903 948.681 555.917 1036.51L555.917 2079.11H-636.319V114.99L124.06 116.553Z" fill="url(#paint2_linear_2012_1416)"/>
<mask id="path-12-inside-5_2012_1416" fill="white">
<path d="M-636.319 114.99L124.06 116.553C187.226 116.563 248.591 137.597 298.481 176.339C348.371 215.08 383.947 269.325 399.6 330.52C415.253 391.716 410.093 456.381 384.932 514.319C359.771 572.257 316.042 620.173 260.639 650.511C345.41 673.507 420.255 723.765 473.621 793.528C526.987 863.291 555.907 948.68 555.917 1036.51V2079.11H-636.319"/>
</mask>
<path d="M124.06 116.553L124.059 120.553L124.052 120.553L124.06 116.553ZM260.639 650.511L259.592 654.372L250.008 651.772L258.718 647.003L260.639 650.511ZM555.917 1036.51L559.917 1036.51V1036.51H555.917ZM555.917 2079.11H559.917V2083.11H555.917V2079.11ZM-636.311 110.99L124.068 112.553L124.052 120.553L-636.328 118.989L-636.311 110.99ZM124.06 112.553C188.114 112.563 250.343 133.893 300.934 173.179L296.028 179.498C246.839 141.301 186.337 120.563 124.059 120.553L124.06 112.553ZM300.934 173.179C351.526 212.465 387.602 267.473 403.475 329.529L395.725 331.511C380.292 271.177 345.216 217.694 296.028 179.498L300.934 173.179ZM403.475 329.529C419.349 391.585 414.115 457.159 388.601 515.912L381.263 512.725C406.07 455.602 411.158 391.846 395.725 331.511L403.475 329.529ZM388.601 515.912C363.086 574.665 318.742 623.255 262.56 654.02L258.718 647.003C313.342 617.091 356.456 569.849 381.263 512.725L388.601 515.912ZM261.686 646.651C347.305 669.876 422.898 720.637 476.798 791.098L470.444 795.958C417.611 726.893 343.515 677.137 259.592 654.372L261.686 646.651ZM476.798 791.098C530.698 861.559 559.907 947.801 559.917 1036.51L551.917 1036.51C551.907 949.559 523.276 865.024 470.444 795.958L476.798 791.098ZM559.917 1036.51V2079.11H551.917V1036.51H559.917ZM555.917 2083.11H-636.319V2075.11H555.917V2083.11Z" fill="#3177DE" fill-opacity="0.35" mask="url(#path-12-inside-5_2012_1416)"/>
<g style="mix-blend-mode:overlay">
<mask id="path-14-inside-6_2012_1416" fill="white">
<path d="M-636.319 114.99L124.06 116.553C187.226 116.563 248.591 137.597 298.481 176.339C348.371 215.08 383.947 269.325 399.6 330.52C415.253 391.716 410.093 456.381 384.932 514.319C359.771 572.257 316.042 620.173 260.639 650.511C345.41 673.507 420.255 723.765 473.621 793.528C526.987 863.291 555.907 948.68 555.917 1036.51V2079.11H-636.319"/>
</mask>
<path d="M124.06 116.553L124.059 120.553L124.052 120.553L124.06 116.553ZM260.639 650.511L259.592 654.372L250.008 651.772L258.718 647.003L260.639 650.511ZM555.917 1036.51L559.917 1036.51V1036.51H555.917ZM555.917 2079.11H559.917V2083.11H555.917V2079.11ZM-636.311 110.99L124.068 112.553L124.052 120.553L-636.328 118.989L-636.311 110.99ZM124.06 112.553C188.114 112.563 250.343 133.893 300.934 173.179L296.028 179.498C246.839 141.301 186.337 120.563 124.059 120.553L124.06 112.553ZM300.934 173.179C351.526 212.465 387.602 267.473 403.475 329.529L395.725 331.511C380.292 271.177 345.216 217.694 296.028 179.498L300.934 173.179ZM403.475 329.529C419.349 391.585 414.115 457.159 388.601 515.912L381.263 512.725C406.07 455.602 411.158 391.846 395.725 331.511L403.475 329.529ZM388.601 515.912C363.086 574.665 318.742 623.255 262.56 654.02L258.718 647.003C313.342 617.091 356.456 569.849 381.263 512.725L388.601 515.912ZM261.686 646.651C347.305 669.876 422.898 720.637 476.798 791.098L470.444 795.958C417.611 726.893 343.515 677.137 259.592 654.372L261.686 646.651ZM476.798 791.098C530.698 861.559 559.907 947.801 559.917 1036.51L551.917 1036.51C551.907 949.559 523.276 865.024 470.444 795.958L476.798 791.098ZM559.917 1036.51V2079.11H551.917V1036.51H559.917ZM555.917 2083.11H-636.319V2075.11H555.917V2083.11Z" fill="#AACCFF" fill-opacity="0.35" mask="url(#path-14-inside-6_2012_1416)"/>
</g>
</g>
<g filter="url(#filter3_d_2012_1416)">
<path d="M7.85916 252.755C71.0248 252.765 132.39 273.799 182.28 312.54C232.17 351.282 267.747 405.526 283.4 466.722C299.053 527.917 293.892 592.582 268.731 650.52C243.571 708.459 199.841 756.375 144.438 786.713C229.207 809.712 304.049 859.972 357.415 929.734C410.78 999.496 439.702 1084.88 439.717 1172.72L439.717 2215.31H-752.52V251.191L7.85916 252.755Z" fill="url(#paint3_linear_2012_1416)"/>
<mask id="path-17-inside-7_2012_1416" fill="white">
<path d="M-752.52 251.191L7.85916 252.755C71.0248 252.765 132.39 273.799 182.28 312.54C232.17 351.282 267.747 405.526 283.4 466.722C299.053 527.917 293.892 592.582 268.731 650.52C243.571 708.459 199.841 756.375 144.438 786.713C229.209 809.708 304.054 859.967 357.42 929.73C410.786 999.493 439.707 1084.88 439.717 1172.72V2215.31H-752.52"/>
</mask>
<path d="M7.85916 252.755L7.85852 256.755L7.85093 256.755L7.85916 252.755ZM144.438 786.713L143.391 790.573L133.808 787.974L142.517 783.204L144.438 786.713ZM439.717 1172.72L443.717 1172.72V1172.72H439.717ZM439.717 2215.31H443.717V2219.31H439.717V2215.31ZM-752.512 247.191L7.86739 248.755L7.85093 256.755L-752.528 255.191L-752.512 247.191ZM7.85979 248.755C71.9137 248.765 134.142 270.095 184.734 309.381L179.827 315.7C130.639 277.503 70.136 256.765 7.85852 256.755L7.85979 248.755ZM184.734 309.381C235.325 348.667 271.402 403.675 287.275 465.731L279.524 467.713C264.091 407.378 229.016 353.896 179.827 315.7L184.734 309.381ZM287.275 465.731C303.148 527.787 297.915 593.361 272.4 652.114L265.062 648.927C289.869 591.804 294.957 528.048 279.524 467.713L287.275 465.731ZM272.4 652.114C246.886 710.867 202.542 759.456 146.36 790.221L142.517 783.204C197.141 753.293 240.255 706.051 265.062 648.927L272.4 652.114ZM145.486 782.852C231.104 806.078 306.697 856.839 360.597 927.3L354.243 932.16C301.41 863.095 227.314 813.339 143.391 790.573L145.486 782.852ZM360.597 927.3C414.497 997.76 443.706 1084 443.717 1172.72L435.717 1172.72C435.707 1085.76 407.076 1001.23 354.243 932.16L360.597 927.3ZM443.717 1172.72V2215.31H435.717V1172.72H443.717ZM439.717 2219.31H-752.52V2211.31H439.717V2219.31Z" fill="#3177DE" fill-opacity="0.35" mask="url(#path-17-inside-7_2012_1416)"/>
<g style="mix-blend-mode:overlay">
<mask id="path-19-inside-8_2012_1416" fill="white">
<path d="M-752.52 251.191L7.85916 252.755C71.0248 252.765 132.39 273.799 182.28 312.54C232.17 351.282 267.747 405.526 283.4 466.722C299.053 527.917 293.892 592.582 268.731 650.52C243.571 708.459 199.841 756.375 144.438 786.713C229.209 809.708 304.054 859.967 357.42 929.73C410.786 999.493 439.707 1084.88 439.717 1172.72V2215.31H-752.52"/>
</mask>
<path d="M7.85916 252.755L7.85852 256.755L7.85093 256.755L7.85916 252.755ZM144.438 786.713L143.391 790.573L133.808 787.974L142.517 783.204L144.438 786.713ZM439.717 1172.72L443.717 1172.72V1172.72H439.717ZM439.717 2215.31H443.717V2219.31H439.717V2215.31ZM-752.512 247.191L7.86739 248.755L7.85093 256.755L-752.528 255.191L-752.512 247.191ZM7.85979 248.755C71.9137 248.765 134.142 270.095 184.734 309.381L179.827 315.7C130.639 277.503 70.136 256.765 7.85852 256.755L7.85979 248.755ZM184.734 309.381C235.325 348.667 271.402 403.675 287.275 465.731L279.524 467.713C264.091 407.378 229.016 353.896 179.827 315.7L184.734 309.381ZM287.275 465.731C303.148 527.787 297.915 593.361 272.4 652.114L265.062 648.927C289.869 591.804 294.957 528.048 279.524 467.713L287.275 465.731ZM272.4 652.114C246.886 710.867 202.542 759.456 146.36 790.221L142.517 783.204C197.141 753.293 240.255 706.051 265.062 648.927L272.4 652.114ZM145.486 782.852C231.104 806.078 306.697 856.839 360.597 927.3L354.243 932.16C301.41 863.095 227.314 813.339 143.391 790.573L145.486 782.852ZM360.597 927.3C414.497 997.76 443.706 1084 443.717 1172.72L435.717 1172.72C435.707 1085.76 407.076 1001.23 354.243 932.16L360.597 927.3ZM443.717 1172.72V2215.31H435.717V1172.72H443.717ZM439.717 2219.31H-752.52V2211.31H439.717V2219.31Z" fill="#AACCFF" fill-opacity="0.35" mask="url(#path-19-inside-8_2012_1416)"/>
</g>
</g>
<g filter="url(#filter4_d_2012_1416)">
</g>
<g filter="url(#filter5_d_2012_1416)">
</g>
</g>
<defs>
<filter id="filter0_d_2012_1416" x="-628.917" y="-378.412" width="1642.24" height="2414.12" filterUnits="userSpaceOnUse" color-interpolation-filters="sRGB">
<feFlood flood-opacity="0" result="BackgroundImageFix"/>
<feColorMatrix in="SourceAlpha" type="matrix" values="0 0 0 0 0 0 0 0 0 0 0 0 0 0 0 0 0 0 127 0" result="hardAlpha"/>
<feMorphology radius="25" operator="dilate" in="SourceAlpha" result="effect1_dropShadow_2012_1416"/>
<feOffset dy="4"/>
<feGaussianBlur stdDeviation="100"/>
<feComposite in2="hardAlpha" operator="out"/>
<feColorMatrix type="matrix" values="0 0 0 0 0.0214286 0 0 0 0 0.0328571 0 0 0 0 0.06 0 0 0 0.8 0"/>
<feBlend mode="normal" in2="BackgroundImageFix" result="effect1_dropShadow_2012_1416"/>
<feBlend mode="normal" in="SourceGraphic" in2="effect1_dropShadow_2012_1416" result="shape"/>
</filter>
<filter id="filter1_d_2012_1416" x="-1150.68" y="-641.68" width="2453.36" height="3225.24" filterUnits="userSpaceOnUse" color-interpolation-filters="sRGB">
<feFlood flood-opacity="0" result="BackgroundImageFix"/>
<feColorMatrix in="SourceAlpha" type="matrix" values="0 0 0 0 0 0 0 0 0 0 0 0 0 0 0 0 0 0 127 0" result="hardAlpha"/>
<feMorphology radius="126.112" operator="dilate" in="SourceAlpha" result="effect1_dropShadow_2012_1416"/>
<feOffset dy="10.089"/>
<feGaussianBlur stdDeviation="252.224"/>
<feComposite in2="hardAlpha" operator="out"/>
<feColorMatrix type="matrix" values="0 0 0 0 0.0214286 0 0 0 0 0.0328571 0 0 0 0 0.06 0 0 0 0.65 0"/>
<feBlend mode="normal" in2="BackgroundImageFix" result="effect1_dropShadow_2012_1416"/>
<feBlend mode="normal" in="SourceGraphic" in2="effect1_dropShadow_2012_1416" result="shape"/>
</filter>
<filter id="filter2_d_2012_1416" x="-861.319" y="-106.01" width="1642.24" height="2414.12" filterUnits="userSpaceOnUse" color-interpolation-filters="sRGB">
<feFlood flood-opacity="0" result="BackgroundImageFix"/>
<feColorMatrix in="SourceAlpha" type="matrix" values="0 0 0 0 0 0 0 0 0 0 0 0 0 0 0 0 0 0 127 0" result="hardAlpha"/>
<feMorphology radius="25" operator="dilate" in="SourceAlpha" result="effect1_dropShadow_2012_1416"/>
<feOffset dy="4"/>
<feGaussianBlur stdDeviation="100"/>
<feComposite in2="hardAlpha" operator="out"/>
<feColorMatrix type="matrix" values="0 0 0 0 0.0214286 0 0 0 0 0.0328571 0 0 0 0 0.06 0 0 0 0.8 0"/>
<feBlend mode="normal" in2="BackgroundImageFix" result="effect1_dropShadow_2012_1416"/>
<feBlend mode="normal" in="SourceGraphic" in2="effect1_dropShadow_2012_1416" result="shape"/>
</filter>
<filter id="filter3_d_2012_1416" x="-977.52" y="30.1912" width="1642.24" height="2414.12" filterUnits="userSpaceOnUse" color-interpolation-filters="sRGB">
<feFlood flood-opacity="0" result="BackgroundImageFix"/>
<feColorMatrix in="SourceAlpha" type="matrix" values="0 0 0 0 0 0 0 0 0 0 0 0 0 0 0 0 0 0 127 0" result="hardAlpha"/>
<feMorphology radius="25" operator="dilate" in="SourceAlpha" result="effect1_dropShadow_2012_1416"/>
<feOffset dy="4"/>
<feGaussianBlur stdDeviation="100"/>
<feComposite in2="hardAlpha" operator="out"/>
<feColorMatrix type="matrix" values="0 0 0 0 0.0214286 0 0 0 0 0.0328571 0 0 0 0 0.06 0 0 0 0.8 0"/>
<feBlend mode="normal" in2="BackgroundImageFix" result="effect1_dropShadow_2012_1416"/>
<feBlend mode="normal" in="SourceGraphic" in2="effect1_dropShadow_2012_1416" result="shape"/>
</filter>
<filter id="filter4_d_2012_1416" x="613.765" y="-378.412" width="1642.24" height="2414.12" filterUnits="userSpaceOnUse" color-interpolation-filters="sRGB">
<feFlood flood-opacity="0" result="BackgroundImageFix"/>
<feColorMatrix in="SourceAlpha" type="matrix" values="0 0 0 0 0 0 0 0 0 0 0 0 0 0 0 0 0 0 127 0" result="hardAlpha"/>
<feMorphology radius="25" operator="dilate" in="SourceAlpha" result="effect1_dropShadow_2012_1416"/>
<feOffset dy="4"/>
<feGaussianBlur stdDeviation="100"/>
<feComposite in2="hardAlpha" operator="out"/>
<feColorMatrix type="matrix" values="0 0 0 0 0.0214286 0 0 0 0 0.0328571 0 0 0 0 0.06 0 0 0 0.8 0"/>
<feBlend mode="normal" in2="BackgroundImageFix" result="effect1_dropShadow_2012_1416"/>
<feBlend mode="normal" in="SourceGraphic" in2="effect1_dropShadow_2012_1416" result="shape"/>
</filter>
<filter id="filter5_d_2012_1416" x="324.408" y="-641.68" width="2453.36" height="3225.24" filterUnits="userSpaceOnUse" color-interpolation-filters="sRGB">
<feFlood flood-opacity="0" result="BackgroundImageFix"/>
<feColorMatrix in="SourceAlpha" type="matrix" values="0 0 0 0 0 0 0 0 0 0 0 0 0 0 0 0 0 0 127 0" result="hardAlpha"/>
<feMorphology radius="126.112" operator="dilate" in="SourceAlpha" result="effect1_dropShadow_2012_1416"/>
<feOffset dy="10.089"/>
<feGaussianBlur stdDeviation="252.224"/>
<feComposite in2="hardAlpha" operator="out"/>
<feColorMatrix type="matrix" values="0 0 0 0 0.0214286 0 0 0 0 0.0328571 0 0 0 0 0.06 0 0 0 0.65 0"/>
<feBlend mode="normal" in2="BackgroundImageFix" result="effect1_dropShadow_2012_1416"/>
<feBlend mode="normal" in="SourceGraphic" in2="effect1_dropShadow_2012_1416" result="shape"/>
</filter>
<linearGradient id="paint0_linear_2012_1416" x1="-404.699" y1="1063.35" x2="788.32" y2="1063.35" gradientUnits="userSpaceOnUse">
<stop offset="0.572917" stop-color="#10172A"/>
<stop offset="1" stop-color="#06194D"/>
</linearGradient>
<linearGradient id="paint1_linear_2012_1416" x1="-520.902" y1="1199.55" x2="672.117" y2="1199.55" gradientUnits="userSpaceOnUse">
<stop offset="0.572917" stop-color="#10172A"/>
<stop offset="1" stop-color="#06194D"/>
</linearGradient>
<linearGradient id="paint2_linear_2012_1416" x1="-637.101" y1="1335.75" x2="555.918" y2="1335.75" gradientUnits="userSpaceOnUse">
<stop offset="0.572917" stop-color="#10172A"/>
<stop offset="1" stop-color="#06194D"/>
</linearGradient>
<linearGradient id="paint3_linear_2012_1416" x1="-753.302" y1="1471.95" x2="439.717" y2="1471.95" gradientUnits="userSpaceOnUse">
<stop offset="0.572917" stop-color="#10172A"/>
<stop offset="1" stop-color="#06194D"/>
</linearGradient>
<clipPath id="clip0_2012_1416">
<rect width="756" height="972" fill="white"/>
</clipPath>
</defs>
</svg>
