<svg width="36" height="36" viewBox="0 0 36 36" fill="none" xmlns="http://www.w3.org/2000/svg">
<symbol id="fb">
<path fill-rule="evenodd" clip-rule="evenodd" d="M15.6316 18.0708V26.9003C15.6316 26.9615 15.6559 27.0201 15.6991 27.0634C15.7424 27.1066 15.801 27.1309 15.8622 27.1309H19.1336C19.1939 27.1296 19.2514 27.1048 19.2936 27.0617C19.3358 27.0186 19.3594 26.9606 19.3594 26.9003V17.9267H21.7325C21.79 17.9268 21.8453 17.905 21.8873 17.8658C21.9292 17.8265 21.9546 17.7727 21.9583 17.7154L22.1889 15.0204C22.1915 14.9885 22.1875 14.9565 22.1771 14.9263C22.1668 14.896 22.1502 14.8683 22.1285 14.8448C22.1068 14.8213 22.0805 14.8026 22.0512 14.7898C22.0219 14.777 21.9902 14.7705 21.9583 14.7706H19.3594V12.8491C19.3594 12.6338 19.4449 12.4273 19.5972 12.275C19.7494 12.1228 19.9559 12.0372 20.1712 12.0372H22.0015C22.0316 12.0372 22.0613 12.0312 22.089 12.0196C22.1167 12.0079 22.1418 11.9909 22.1629 11.9694C22.1839 11.9479 22.2004 11.9225 22.2115 11.8945C22.2226 11.8666 22.2279 11.8367 22.2273 11.8066V9.12609C22.2273 9.06576 22.2037 9.00783 22.1615 8.96472C22.1192 8.92161 22.0618 8.89676 22.0015 8.89551H18.9126C18.0425 8.89551 17.2079 9.24119 16.5926 9.8565C15.9773 10.4718 15.6316 11.3064 15.6316 12.1765V14.7754H14.0223C13.9612 14.7754 13.9025 14.7997 13.8593 14.8429C13.816 14.8862 13.7917 14.9448 13.7917 15.006V17.7009C13.7911 17.7314 13.7966 17.7617 13.808 17.79C13.8193 17.8182 13.8363 17.8439 13.8578 17.8655C13.8794 17.887 13.905 17.904 13.9333 17.9153C13.9616 17.9267 13.9919 17.9322 14.0223 17.9315H15.6556L15.6316 18.0708Z" fill="#9FB1C7"/>
<path d="M18 0C14.4399 0 10.9598 1.05568 7.99974 3.03355C5.03966 5.01141 2.73255 7.82263 1.37018 11.1117C0.00779909 14.4008 -0.348661 18.02 0.345873 21.5116C1.04041 25.0033 2.75474 28.2106 5.27208 30.7279C7.78943 33.2453 10.9967 34.9596 14.4884 35.6541C17.98 36.3487 21.5992 35.9922 24.8883 34.6298C28.1774 33.2674 30.9886 30.9603 32.9665 28.0003C34.9443 25.0402 36 21.5601 36 18C35.9949 13.2277 34.0969 8.65225 30.7223 5.27769C27.3478 1.90314 22.7723 0.00508643 18 0ZM33.6894 18C33.6903 21.1044 32.7705 24.1394 31.0464 26.721C29.3223 29.3026 26.8712 31.3149 24.0033 32.5034C21.1354 33.6918 17.9794 34.003 14.9346 33.3976C11.8898 32.7922 9.09292 31.2974 6.89776 29.1022C4.7026 26.9071 3.20778 24.1102 2.60237 21.0654C1.99696 18.0206 2.30817 14.8646 3.49661 11.9967C4.68506 9.12876 6.69737 6.67772 9.27899 4.95359C11.8606 3.22946 14.8956 2.3097 18 2.31065C22.1595 2.31573 26.1472 3.97035 29.0884 6.91157C32.0297 9.85279 33.6843 13.8405 33.6894 18Z" fill="#9FB1C7"/>
</symbol>
</svg>
