<svg width="36" height="36" viewBox="0 0 36 36" fill="none" xmlns="http://www.w3.org/2000/svg">
<symbol id="ig">
<path d="M24.0194 13.0373C24.0194 13.251 23.956 13.46 23.8372 13.6377C23.7184 13.8155 23.5496 13.954 23.3521 14.0358C23.1546 14.1176 22.9373 14.139 22.7276 14.0973C22.518 14.0556 22.3254 13.9527 22.1742 13.8015C22.023 13.6504 21.9201 13.4578 21.8784 13.2481C21.8367 13.0384 21.8581 12.8211 21.9399 12.6236C22.0217 12.4261 22.1602 12.2573 22.338 12.1385C22.5157 12.0198 22.7247 11.9564 22.9385 11.9564C23.0806 11.9557 23.2214 11.9833 23.3529 12.0374C23.4843 12.0915 23.6037 12.171 23.7042 12.2715C23.8047 12.372 23.8843 12.4914 23.9384 12.6229C23.9925 12.7543 24.02 12.8951 24.0194 13.0373ZM22.6743 17.8699C22.6743 18.7659 22.4086 19.6417 21.9108 20.3867C21.4131 21.1316 20.7056 21.7122 19.8778 22.0551C19.0501 22.398 18.1392 22.4877 17.2605 22.3129C16.3818 22.1381 15.5746 21.7066 14.941 21.0731C14.3075 20.4396 13.8761 19.6324 13.7013 18.7537C13.5265 17.8749 13.6162 16.9641 13.9591 16.1363C14.3019 15.3086 14.8826 14.6011 15.6275 14.1033C16.3725 13.6056 17.2483 13.3399 18.1443 13.3399C19.342 13.3462 20.4885 13.8262 21.3337 14.6749C22.1788 15.5236 22.6538 16.6722 22.6551 17.8699H22.6743ZM21.0458 17.8699C21.0458 17.2998 20.8767 16.7426 20.56 16.2686C20.2433 15.7946 19.7932 15.4252 19.2665 15.207C18.7398 14.9889 18.1603 14.9318 17.6012 15.043C17.0421 15.1542 16.5285 15.4287 16.1254 15.8318C15.7223 16.2349 15.4478 16.7485 15.3366 17.3076C15.2253 17.8667 15.2824 18.4462 15.5006 18.9729C15.7187 19.4996 16.0882 19.9497 16.5622 20.2665C17.0361 20.5832 17.5934 20.7522 18.1635 20.7522C18.9246 20.7471 19.6528 20.4412 20.1892 19.9012C20.7255 19.3613 21.0266 18.631 21.0266 17.8699H21.0458ZM27.2908 14.2334C27.2908 13.5079 27.1479 12.7896 26.8703 12.1193C26.5926 11.449 26.1857 10.84 25.6727 10.327C25.1597 9.81406 24.5507 9.40713 23.8805 9.1295C23.2102 8.85188 22.4918 8.70898 21.7664 8.70898H14.2291C12.764 8.70898 11.3588 9.29102 10.3228 10.327C9.28675 11.3631 8.70471 12.7682 8.70471 14.2334V21.7706C8.70471 23.2358 9.28675 24.6409 10.3228 25.677C11.3588 26.713 12.764 27.295 14.2291 27.295H21.7712C23.2363 27.295 24.6415 26.713 25.6775 25.677C26.7135 24.6409 27.2956 23.2358 27.2956 21.7706L27.2908 14.2334ZM25.4605 21.689C25.4605 22.1871 25.3623 22.6804 25.1715 23.1405C24.9808 23.6007 24.7011 24.0187 24.3487 24.3708C23.9962 24.7228 23.5778 25.0019 23.1174 25.1921C22.657 25.3823 22.1636 25.4798 21.6655 25.4792H14.3156C13.8175 25.4798 13.3241 25.3823 12.8637 25.1921C12.4033 25.0019 11.9849 24.7228 11.6324 24.3708C11.2799 24.0187 11.0003 23.6007 10.8095 23.1405C10.6188 22.6804 10.5206 22.1871 10.5206 21.689V14.3151C10.5206 13.3086 10.9204 12.3433 11.6321 11.6316C12.3438 10.9199 13.3091 10.52 14.3156 10.52H21.6847C22.6912 10.52 23.6565 10.9199 24.3682 11.6316C25.0799 12.3433 25.4797 13.3086 25.4797 14.3151L25.4605 21.689Z" fill="#9FB1C7"/>
<path d="M18 0C14.4399 0 10.9598 1.05568 7.99974 3.03355C5.03966 5.01141 2.73255 7.82263 1.37018 11.1117C0.00779909 14.4008 -0.348661 18.02 0.345873 21.5116C1.04041 25.0033 2.75474 28.2106 5.27208 30.7279C7.78943 33.2453 10.9967 34.9596 14.4884 35.6541C17.98 36.3487 21.5992 35.9922 24.8883 34.6298C28.1774 33.2674 30.9886 30.9603 32.9664 28.0003C34.9443 25.0402 36 21.5601 36 18C35.9949 13.2277 34.0968 8.65225 30.7223 5.27769C27.3477 1.90314 22.7723 0.00508642 18 0ZM18 33.6941C14.8958 33.6951 11.861 32.7755 9.27949 31.0515C6.69797 29.3276 4.68566 26.8769 3.49707 24.0092C2.30848 21.1416 1.997 17.9858 2.60202 14.9412C3.20704 11.8965 4.70138 9.0996 6.89606 6.90425C9.09073 4.70891 11.8872 3.21371 14.9317 2.60776C17.9762 2.00181 21.132 2.31232 24 3.50003C26.868 4.68774 29.3194 6.6993 31.0441 9.28029C32.7688 11.8613 33.6893 14.8958 33.6893 18C33.6855 22.1603 32.0315 26.1493 29.0901 29.0915C26.1488 32.0338 22.1603 33.6891 18 33.6941Z" fill="#9FB1C7"/>
</symbol>
</svg>
