<svg width="208" height="40" viewBox="0 0 208 40" fill="none" xmlns="http://www.w3.org/2000/svg">
<g clip-path="url(#clip0_1_1263)">
<path d="M56.2413 32.1606V39.5741H51.5891V15.4439H56.2413V16.5975C57.5351 15.7577 59.1798 15.199 60.8935 15.199C66.1745 15.199 70.0568 19.3956 70.0568 24.3959C70.0568 29.3614 66.2095 33.5929 60.8935 33.5929C59.1099 33.5941 57.5361 33.0342 56.2413 32.1606ZM56.2413 22.1938V26.4605C57.0462 28.1038 58.655 29.1886 60.5436 29.1886C63.2721 29.1886 65.4058 27.0903 65.4058 24.3971C65.4058 21.6689 63.3071 19.6056 60.5785 19.6056C58.6899 19.6056 57.0462 20.6204 56.2413 22.1938Z" fill="white"/>
<path d="M72.573 10.5794C72.573 9.04093 73.6917 7.88623 75.1966 7.88623C76.7002 7.88623 77.9251 9.03981 77.9251 10.5794C77.9251 12.0478 76.7013 13.2726 75.1966 13.2726C73.6917 13.2714 72.573 12.0478 72.573 10.5794ZM72.853 15.4432H77.5752V33.3134H72.853V15.4432Z" fill="white"/>
<path d="M80.3716 24.3266C80.3716 19.3952 84.2188 15.2346 89.5348 15.2346C91.2835 15.2346 92.8921 15.6894 94.257 16.4232V15.4434H98.8742V32.2988C98.8742 36.9504 94.8519 39.4675 89.8159 39.4675C86.5286 39.4675 83.38 38.4889 81.3164 36.8793L83.24 33.5574C84.9538 34.7109 87.2973 35.4458 89.8159 35.4458C93.0682 35.4458 94.0832 34.1522 94.2232 32.054C92.8245 32.9287 91.2157 33.4525 89.5359 33.4525C84.1838 33.4535 80.3716 29.4668 80.3716 24.3266ZM94.257 26.3199V22.3332C93.4521 20.6548 91.7734 19.5351 89.8848 19.5351C87.1562 19.5351 85.0226 21.7034 85.0226 24.3266C85.0226 27.0898 87.1212 29.0131 89.8497 29.0131C91.8434 29.012 93.4171 27.9984 94.257 26.3199Z" fill="white"/>
<path d="M101.669 24.3266C101.669 19.3952 105.516 15.2346 110.832 15.2346C112.58 15.2346 114.189 15.6894 115.555 16.4232V15.4434H120.171V32.2988C120.171 36.9504 116.149 39.4675 111.113 39.4675C107.826 39.4675 104.677 38.4889 102.614 36.8793L104.537 33.5574C106.251 34.7109 108.595 35.4458 111.113 35.4458C114.365 35.4458 115.38 34.1522 115.52 32.054C114.121 32.9287 112.512 33.4525 110.833 33.4525C105.481 33.4535 101.669 29.4668 101.669 24.3266ZM115.555 26.3199V22.3332C114.749 20.6548 113.07 19.5351 111.182 19.5351C108.453 19.5351 106.32 21.7034 106.32 24.3266C106.32 27.0898 108.418 29.0131 111.147 29.0131C113.14 29.012 114.715 27.9984 115.555 26.3199Z" fill="white"/>
<path d="M126.953 15.4434L131.64 27.3684L136.467 15.4434H141.364L131.081 39.5735H126.709L129.298 33.1385L121.778 15.4434H126.953Z" fill="white"/>
<path d="M140.487 15.4434H145.488L150.035 27.5084L154.547 15.4434H159.444L152.275 33.3135H147.587L140.487 15.4434Z" fill="white"/>
<path d="M159.79 24.257C159.79 19.2217 163.392 15.0601 169.024 15.0601C174.235 15.0601 178.187 18.9768 178.292 24.117C178.328 24.5369 178.328 24.9918 178.292 25.4456H164.197C164.336 27.9638 166.75 29.6073 169.337 29.6073C171.471 29.6073 172.73 29.0124 174.2 27.7888L176.754 30.482C174.69 32.6503 172.626 33.6639 169.338 33.6639C163.288 33.6639 159.79 29.1524 159.79 24.257ZM164.441 22.1237H173.465C173.01 20.4452 171.401 18.9768 168.952 18.9768C166.12 18.9768 164.932 20.4102 164.441 22.1237Z" fill="white"/>
<path d="M179.268 31.3901L181.542 27.6833C183.571 29.0118 185.984 29.8166 188.466 29.8166C190.81 29.8166 191.999 29.2217 191.999 28.2081C191.999 27.5434 191.439 27.0546 190.25 26.8096L185.352 25.7611C181.75 24.9913 180.107 23.2779 180.107 20.4808C180.107 17.5089 182.626 15.0256 187.837 15.0256C190.984 15.0256 193.783 15.9354 195.706 17.1239L193.572 20.6907C191.999 19.8509 189.901 18.9423 187.696 18.9423C185.703 18.9423 184.549 19.4322 184.549 20.3409C184.549 20.9357 184.969 21.3206 186.123 21.5294L190.25 22.2991C194.728 23.174 196.441 25.1674 196.441 27.8594C196.441 31.7411 192.559 33.7694 188.326 33.7694C184.935 33.7683 182.206 33.0686 179.268 31.3901Z" fill="white"/>
<path d="M200.042 15.4434V10.5131L204.694 7.5061V15.4446H207.422V19.5012H204.693V33.3147H200.041V19.5001H197.383V15.4434H200.042Z" fill="white"/>
<path d="M39.9519 18.3174C39.8683 17.1718 39.6945 16.0509 39.3954 14.947C38.0666 10.0325 35.2681 6.18012 30.9918 3.42373C28.269 1.65387 25.2548 0.674124 22.0081 0.416772C20.6545 0.317442 19.318 0.358077 17.9722 0.525131C16.5521 0.715887 15.1737 1.04774 13.8371 1.52971C7.942 3.67205 3.40721 8.54482 1.71386 14.5892C1.34809 15.8929 1.13248 17.2214 1.04104 18.5748C0.999269 19.2723 0.999268 19.9699 0.999268 20.6675V37.6211C0.999268 38.5343 1.7387 39.2815 2.65988 39.2815H9.21087C10.0666 39.2815 10.7721 38.6257 10.8636 37.7949C10.8636 37.7949 10.8636 37.7949 10.8636 37.787C10.9053 37.6291 10.9302 37.4631 10.9302 37.2972V36.9066C10.9302 36.8739 10.9223 36.8491 10.9302 36.8152V36.7904C10.9878 36.7983 11.0216 36.8321 11.0544 36.8491C13.5368 38.2104 16.1864 39.0072 19.0097 39.2239C20.1228 39.3075 21.2438 39.2985 22.3727 39.1912C23.3774 39.0919 24.3743 38.9338 25.3621 38.6765C29.6055 37.5557 33.1096 35.2892 35.8416 31.8352C38.1919 28.8632 39.5364 25.4669 39.9191 21.6981C40.0355 20.567 40.0434 19.4462 39.9519 18.3174ZM23.9769 29.151C23.952 29.2752 23.8527 29.3588 23.7274 29.3588H17.2836C17.1674 29.3588 17.0589 29.2752 17.0342 29.151L17.0263 29.1093V28.8689C17.0263 28.5618 17.0589 28.2797 17.1256 27.9884C17.1674 27.8892 17.1922 27.7729 17.234 27.6645C17.2667 27.5562 17.3175 27.4569 17.3582 27.3484C17.4157 27.2492 17.4665 27.1486 17.5241 27.0584C17.5569 27.0088 17.5828 26.9669 17.6156 26.9173C17.6731 26.8258 17.7488 26.7345 17.8154 26.652C17.8898 26.5606 17.9643 26.4783 18.04 26.3947C18.4215 26.0211 18.8957 25.7219 19.4184 25.556C18.7038 25.1745 18.2228 24.4104 18.2228 23.5469C18.2228 22.285 19.2445 21.2635 20.5066 21.2556C21.1377 21.2556 21.7111 21.5208 22.1255 21.9283C22.5409 22.3437 22.7983 22.9159 22.7983 23.5469C22.7983 24.4104 22.3083 25.1745 21.6028 25.556C22.9891 26.0132 23.9938 27.3158 23.9938 28.8689C23.9927 28.9603 23.9848 29.0608 23.9769 29.151ZM35.1202 15.0712H5.89079C5.65823 15.0712 5.49229 14.8387 5.56679 14.6141C7.73428 8.46242 13.6045 4.04454 20.5055 4.04454C27.4065 4.04454 33.2768 8.4613 35.443 14.6141C35.5187 14.8387 35.3528 15.0712 35.1202 15.0712Z" fill="white"/>
</g>
<defs>
<clipPath id="clip0_1_1263">
<rect width="207.568" height="40" fill="white"/>
</clipPath>
</defs>
</svg>
