<svg width="17" height="20" viewBox="0 0 17 20" fill="none" xmlns="http://www.w3.org/2000/svg">
<symbol id="playstoresvg">
<g clip-path="url(#clip0_1_1250)">
<path d="M9.18297 10.0005L1.35895 18.8726C1.10188 18.7551 0.884128 18.5659 0.731789 18.3278C0.579451 18.0897 0.49898 17.8128 0.500016 17.5301V2.47093C0.498707 2.18821 0.578945 1.9111 0.731115 1.67282C0.883284 1.43453 1.10093 1.24518 1.35798 1.12744L9.18297 10.0005Z" fill="#DDE7F3"/>
<path opacity="0.6" d="M12.1507 6.63485L9.18291 10.0004L1.35889 1.12733C1.57429 1.02582 1.81122 0.978445 2.04909 0.989319C2.28696 1.00019 2.51858 1.06899 2.72382 1.18973L12.1507 6.63485Z" fill="#DDE7F3"/>
<path opacity="0.6" d="M12.1507 13.3709L2.71895 18.8112C2.5143 18.9311 2.28356 18.9994 2.04662 19.0103C1.80968 19.0212 1.57365 18.9742 1.35889 18.8736L9.18291 10.0015L12.1507 13.3709Z" fill="#DDE7F3"/>
<path opacity="0.4" d="M15.7609 11.2814L12.1506 13.3707L9.18286 10.0003L12.1506 6.63477L15.758 8.71922C15.9828 8.84894 16.1696 9.03552 16.2995 9.26023C16.4295 9.48495 16.4981 9.73989 16.4984 9.99947C16.4987 10.2591 16.4307 10.5142 16.3012 10.7392C16.1718 10.9642 15.9854 11.1512 15.7609 11.2814Z" fill="#DDE7F3"/>
</g>
<defs>
<clipPath id="clip0_1_1250">
<rect width="16" height="18.0221" fill="white" transform="translate(0.5 0.989014)"/>
</clipPath>
</defs>
</symbol>
</svg>
