<svg width="96" height="100" viewBox="0 0 96 100" fill="none" xmlns="http://www.w3.org/2000/svg">
<symbol id="securitysvg">
<path opacity="0.1" d="M94.1103 55.4348C95.2878 58.5145 96.7371 62.0471 95.5595 65.5797C94.382 69.2029 91.1211 71.2862 88.2226 73.0978C86.5921 74.1848 84.8711 75.1812 84.0559 76.2681C83.2407 77.3551 82.6972 79.3478 82.2443 81.25C81.4291 84.5109 80.4327 88.2246 77.4436 90.4891C74.4545 92.663 70.6501 92.4819 67.2081 92.2101C65.2153 92.1196 63.132 91.9384 61.7733 92.3913C60.5052 92.7536 58.9653 94.1123 57.5161 95.2899C54.8892 97.4638 51.9001 100 48.0052 100C44.1103 100 41.1211 97.4638 38.4943 95.2899C37.045 94.0218 35.5052 92.7536 34.2371 92.3913C32.8784 91.9384 30.795 92.1196 28.8023 92.2101C25.4508 92.3913 21.6465 92.663 18.5668 90.4891C15.4871 88.3152 14.5813 84.6014 13.7661 81.25C13.3132 79.3478 12.7697 77.3551 11.9545 76.1775C11.1392 75.0906 9.41823 74.0036 7.78779 73.0073C4.88924 71.1957 1.62837 69.1123 0.450834 65.4891C-0.636122 61.9565 0.722572 58.4239 1.90011 55.3442C2.62475 53.442 3.43996 51.5399 3.43996 50C3.43996 48.4601 2.71533 46.558 1.90011 44.6558C0.631993 41.5761 -0.726702 38.0435 0.450834 34.5109C1.62837 30.8877 4.88924 28.8044 7.78779 26.9928C9.41823 25.9058 11.1392 24.8188 11.9545 23.7319C12.7697 22.6449 13.3132 20.6522 13.7661 18.75C14.5813 15.4891 15.5776 11.7754 18.5668 9.51087C21.5559 7.33696 25.3603 7.51812 28.8023 7.78986C30.795 7.88044 32.8784 8.06159 34.2371 7.60869C35.5052 7.15579 37.045 5.88768 38.4943 4.71014C41.1211 2.53623 44.1103 0 48.0052 0C51.9001 0 54.8892 2.53623 57.5161 4.71014C58.9653 5.88768 60.5052 7.24637 61.7733 7.60869C63.132 8.06159 65.2153 7.88044 67.2081 7.78986C70.5595 7.6087 74.3639 7.33696 77.4436 9.51087C80.5233 11.6848 81.4291 15.4891 82.2443 18.75C82.6972 20.6522 83.2407 22.6449 84.0559 23.7319C84.8711 24.8188 86.5921 25.9058 88.2226 26.9022C91.1211 28.7138 94.382 30.7971 95.5595 34.4203C96.6465 37.9529 95.2878 41.3949 94.1103 44.5652C93.3856 46.4674 92.5704 48.3696 92.5704 49.9094C92.5704 51.4493 93.2951 53.5326 94.1103 55.4348Z" fill="white"/>
<path d="M48.0047 82.5172C65.9139 82.5172 80.4322 67.9989 80.4322 50.0896C80.4322 32.1804 65.9139 17.6621 48.0047 17.6621C30.0954 17.6621 15.5771 32.1804 15.5771 50.0896C15.5771 67.9989 30.0954 82.5172 48.0047 82.5172Z" fill="#0F172A"/>
<path fill-rule="evenodd" clip-rule="evenodd" d="M56.1328 42.2357V44.981C58.1697 45.6895 59.7933 46.6637 59.7933 47.9035V59.3279C59.7933 61.3057 58.6715 63.136 56.9003 64.0216C54.8929 64.9957 51.8819 65.9994 47.8967 65.9994C43.9114 65.9994 40.9004 64.9957 38.893 64.0216C37.1218 63.136 36 61.3057 36 59.3279V47.9035C36 46.6637 37.6236 45.6895 39.6605 44.981V42.2357C39.6605 37.6895 43.3505 33.9995 47.8967 33.9995C52.4428 33.9995 56.1328 37.6895 56.1328 42.2357ZM47.8967 36.0069C44.4723 36.0069 41.6679 38.8113 41.6679 42.2357H41.6974V44.3906C41.7294 44.3746 41.77 44.3673 41.8146 44.3593C41.8523 44.3525 41.893 44.3451 41.9336 44.3316C45.8598 43.3574 49.9631 43.3574 53.8893 44.3316C53.9483 44.3316 54.0369 44.3611 54.1254 44.3906V42.2357C54.1254 38.7818 51.321 36.0069 47.8967 36.0069Z" fill="#93C5FD"/>
<path d="M49.2056 53.3501C50.0766 52.8721 50.667 51.9463 50.667 50.8827C50.667 49.3293 49.4077 48.0701 47.8544 48.0701C46.301 48.0701 45.0417 49.3293 45.0417 50.8827C45.0417 51.9467 45.6326 52.8727 46.504 53.3506C45.8437 53.5297 45.235 53.8788 44.7428 54.371C44.0011 55.1127 43.5845 56.1186 43.5845 57.1675V58H52.1269V57.1675C52.1269 56.6481 52.0246 56.1339 51.8259 55.654C51.6271 55.1742 51.3358 54.7382 50.9686 54.371C50.6013 54.0038 50.1654 53.7124 49.6855 53.5137C49.5289 53.4488 49.3686 53.3942 49.2056 53.3501Z" fill="#0F172A"/>
<path d="M59.7933 57.4683V59.328C59.7933 61.3059 58.6715 63.1361 56.9003 64.0217C54.8929 64.9959 51.8819 65.9996 47.8967 65.9996C43.9114 65.9996 40.9004 64.9959 38.893 64.0217C37.1218 63.1361 36 61.3059 36 59.328V57.4683C36 59.4461 37.1218 61.2764 38.893 62.162C40.9004 63.1361 43.9114 64.1398 47.8967 64.1398C51.8819 64.1398 54.8929 63.1361 56.9003 62.162C58.6715 61.2764 59.7933 59.4461 59.7933 57.4683Z" fill="#60A5FA"/>
</symbol>
</svg>
