<svg width="36" height="36" viewBox="0 0 36 36" fill="none" xmlns="http://www.w3.org/2000/svg">
<symbol id="x">
<path d="M27.1895 12.2168C26.5834 12.473 25.9475 12.6521 25.2968 12.75C25.5995 12.702 26.0318 12.1544 26.2095 11.9334C26.4859 11.598 26.6961 11.2133 26.8292 10.7997C26.8292 10.7661 26.8533 10.7276 26.8292 10.7036C26.815 10.6941 26.7983 10.689 26.7812 10.689C26.7641 10.689 26.7474 10.6941 26.7332 10.7036C26.0293 11.0768 25.2823 11.3624 24.509 11.5539C24.4819 11.5615 24.4532 11.5614 24.4261 11.5538C24.399 11.5462 24.3745 11.5313 24.3553 11.5107C24.2961 11.4404 24.2319 11.3745 24.1631 11.3137C23.842 11.0382 23.4786 10.8159 23.087 10.6556C22.5635 10.4424 21.9986 10.3504 21.4345 10.3866C20.887 10.4252 20.3532 10.576 19.8664 10.8297C19.3797 11.0835 18.9503 11.4346 18.6051 11.8613C18.2471 12.3034 17.9897 12.8181 17.8509 13.3697C17.7325 13.8952 17.7195 14.4389 17.8124 14.9694C17.8124 15.0559 17.8124 15.0703 17.7356 15.0559C14.6851 14.6043 12.1535 13.5091 10.1023 11.1696C10.0158 11.0687 9.96776 11.0687 9.8909 11.1696C8.99258 12.5147 9.41051 14.6812 10.5538 15.7428C10.7027 15.8822 10.8565 16.0263 11.0342 16.156C10.5218 16.1162 10.0223 15.9758 9.56423 15.7428C9.47296 15.6852 9.42973 15.7188 9.42012 15.8197C9.40616 15.9651 9.40616 16.1115 9.42012 16.2569C9.50913 16.9425 9.77832 17.5922 10.2003 18.1399C10.6222 18.6876 11.1818 19.1136 11.822 19.3746C11.9758 19.4438 12.137 19.4954 12.3024 19.5283C11.8277 19.6221 11.3408 19.6367 10.8613 19.5715C10.7556 19.5715 10.7124 19.6051 10.7556 19.706C11.3897 21.4354 12.7636 21.9542 13.7868 22.2472C13.9261 22.2713 14.0654 22.2713 14.1999 22.3001C14.1999 22.3001 14.1999 22.3001 14.1759 22.3289C13.8348 22.8477 12.6531 23.232 12.1055 23.4242C11.0983 23.7852 10.0246 23.9229 8.95895 23.8277C8.78601 23.8277 8.75238 23.8277 8.70435 23.8277C8.65631 23.8277 8.70435 23.895 8.75239 23.943C8.96856 24.0823 9.18953 24.2072 9.41051 24.3321C10.0794 24.6877 10.7849 24.9696 11.5146 25.1728C15.2952 26.2152 19.5562 25.4466 22.3953 22.6268C24.6243 20.4122 25.4073 17.3425 25.4073 14.2969C25.4073 14.1768 25.5466 14.1095 25.6331 14.0471C26.2098 13.6113 26.7197 13.0934 27.1463 12.5099C27.2168 12.4243 27.2632 12.3215 27.2808 12.212C27.3 12.1688 27.2616 12.1832 27.1895 12.2168Z" fill="#9FB1C7"/>
<path d="M18 0C14.4405 1.14085e-06 10.961 1.05532 8.00123 3.03255C5.04146 5.00978 2.73435 7.82014 1.37155 11.1084C0.00875429 14.3966 -0.348546 18.0151 0.34482 21.5063C1.03819 24.9976 2.75109 28.2049 5.26699 30.7228C7.7829 33.2407 10.9888 34.9562 14.4795 35.6524C17.9703 36.3485 21.589 35.9941 24.8783 34.634C28.1676 33.2738 30.9798 30.9689 32.9594 28.0107C34.939 25.0525 35.9971 21.5739 36 18.0144C35.9987 13.2396 34.1023 8.66046 30.7274 5.28279C27.3524 1.90513 22.7748 0.00509163 18 0ZM18 33.6893C14.8952 33.6893 11.8601 32.7684 9.2788 31.0431C6.69749 29.3177 4.68595 26.8655 3.49866 23.9966C2.31138 21.1278 2.0017 17.9712 2.60883 14.9263C3.21595 11.8814 4.71258 9.08505 6.90937 6.89095C9.10616 4.69685 11.9044 3.20365 14.95 2.60026C17.9956 1.99687 21.1518 2.31041 24.0192 3.50121C26.8866 4.69201 29.3364 6.70656 31.0585 9.28998C32.7807 11.8734 33.6979 14.9096 33.6941 18.0144C33.6891 22.1747 32.0338 26.1632 29.0915 29.1045C26.1493 32.0459 22.1603 33.6999 18 33.7038V33.6893Z" fill="#9FB1C7"/>
</symbol>
</svg>
